<?xml version="1.0" encoding="utf-8"?>
<!-- Generator: Adobe Illustrator 18.0.0, SVG Export Plug-In . SVG Version: 6.00 Build 0)  -->
<!DOCTYPE svg PUBLIC "-//W3C//DTD SVG 1.1//EN" "http://www.w3.org/Graphics/SVG/1.1/DTD/svg11.dtd">
<svg version="1.1" id="Layer_1" xmlns="http://www.w3.org/2000/svg" xmlns:xlink="http://www.w3.org/1999/xlink" x="0px" y="0px"
	 viewBox="0 0 466.5 244.4" enable-background="new 0 0 466.5 244.4" xml:space="preserve">
<polygon fill="#FFFFFF" points="55,149 75.2,149 75.2,127.6 95.9,127.6 95.9,149 116.1,149 116.1,91.9 95.9,91.9 95.9,112.4 
	75.2,112.4 75.2,91.9 55,91.9 "/>
<polygon fill="#FFFFFF" points="188.5,91.9 208.4,91.9 208.4,136.1 227.9,136.1 227.9,149 188.5,149 "/>
<rect x="231.1" y="91.9" fill="#FFFFFF" width="20.1" height="57.1"/>
<polygon fill="#FFFFFF" points="259,91.9 298.9,91.9 298.9,103.9 278.8,103.9 278.8,114.4 298.7,114.4 298.7,126.6 278.8,126.6 
	278.8,149 259,149 "/>
<polygon fill="#FFFFFF" points="420.9,214.4 277,214.4 271.3,209.3 415.2,209.3 "/>
<polygon fill="#FFFFFF" points="408.9,204.2 265.1,204.2 259.4,199.1 403.3,199.1 "/>
<polygon fill="#FFFFFF" points="396.8,194.4 252.9,194.4 247.2,189.3 391.1,189.3 "/>
<polygon fill="#FFFFFF" points="383.4,183.6 239.5,183.6 233.8,178.6 377.7,178.6 "/>
<polygon fill="#FFFFFF" points="371,173.1 227.1,173.1 221.4,168 365.3,168 "/>
<polygon fill="#FFFFFF" points="358.6,162.9 214.7,162.9 209,157.8 352.9,157.8 "/>
<polygon fill="#FFFFFF" points="228.8,183.7 96,183.7 101.8,178.6 223.1,178.6 "/>
<polygon fill="#FFFFFF" points="216.4,173.1 108.2,173.1 114,168 210.7,168 "/>
<polygon fill="#FFFFFF" points="204,162.9 120.5,162.9 126.3,157.8 198.4,157.8 "/>
<polygon fill="#FFFFFF" points="226.2,194.5 82.4,194.5 88.2,189.4 231.3,189.4 "/>
<polygon fill="#FFFFFF" points="213.8,204.5 70.1,204.5 75.8,199.4 218.9,199.4 "/>
<polygon fill="#FFFFFF" points="201.9,214.7 58.1,214.7 63.9,209.6 206.9,209.6 "/>
<polygon fill="#FFFFFF" points="62.8,32.1 206.6,32.1 201,27 57.1,27 "/>
<polygon fill="#FFFFFF" points="74.7,42.3 218.6,42.3 212.9,37.2 69.1,37.2 "/>
<polygon fill="#FFFFFF" points="86.9,52.1 230.8,52.1 225.1,47 81.2,47 "/>
<polygon fill="#FFFFFF" points="100.3,62.9 244.2,62.9 238.5,57.8 94.6,57.8 "/>
<polygon fill="#FFFFFF" points="112.7,73.5 256.6,73.5 250.9,68.4 107,68.4 "/>
<polygon fill="#FFFFFF" points="125.1,83.7 269,83.7 263.3,78.6 119.4,78.6 "/>
<polygon fill="#FFFFFF" points="254.9,62.9 376.2,62.9 382,57.8 249.2,57.8 "/>
<polygon fill="#FFFFFF" points="267.2,73.4 364,73.4 369.8,68.3 261.6,68.3 "/>
<polygon fill="#FFFFFF" points="279.6,83.6 351.7,83.6 357.5,78.5 274,78.5 "/>
<polygon fill="#FFFFFF" points="246.7,52.1 389.8,52.1 395.6,47 251.8,47 "/>
<polygon fill="#FFFFFF" points="259.1,42.1 402.1,42.1 407.9,37 264.2,37 "/>
<polygon fill="#FFFFFF" points="271,31.9 414.1,31.9 419.9,26.8 276.1,26.8 "/>
<path fill="#FFFFFF" d="M422,91.9h-21l-12.8,14.4l-11.9-14.4h-23.7l22.4,28.6l-18,22.5l-21.5-51.1h-17.5L291.8,149h20.8l4.1-8.6
	h18.4l3.9,8.6h35.8l11.3-14.1l11.2,14.1h24.5l-22.4-28.3L422,91.9z M321.5,129.6l4.9-12.4l4,12.4H321.5z"/>
<path fill="#FFFFFF" d="M161.5,91.9H144L117.7,149h20.8l4.1-8.6H161l3.9,8.6h20.7L161.5,91.9z M147.5,129.6l4.9-12.4l4,12.4H147.5z"
	/>
</svg>
