<?xml version="1.0" encoding="utf-8"?>
<!-- Generator: Adobe Illustrator 18.0.0, SVG Export Plug-In . SVG Version: 6.00 Build 0)  -->
<!DOCTYPE svg PUBLIC "-//W3C//DTD SVG 1.1//EN" "http://www.w3.org/Graphics/SVG/1.1/DTD/svg11.dtd">
<svg version="1.1" id="Isolation_Mode" xmlns="http://www.w3.org/2000/svg" xmlns:xlink="http://www.w3.org/1999/xlink" x="0px"
	 y="0px" viewBox="0 0 96 84" enable-background="new 0 0 96 84" xml:space="preserve">
<path fill="#55A51C" d="M64.7,27.3c0-9.4-7.6-16.9-17-16.9c-9.4,0-17,7.6-17,16.9v3.3h4.9v-3.3c0-6.7,5.4-12.1,12.1-12.1
	c6.7,0,12.1,5.4,12.1,12.1v3.3h4.9V27.3z"/>
<path fill="#55A51C" d="M69.4,33.8H25.7l0.2,7.4v1.1V63c0,2.7,2.2,4.8,4.8,4.8h33.9c2.7,0,4.8-2.2,4.8-4.8V42.3v-1.1L69.4,33.8z
	 M50.2,51.7v7.6h-4.8v-7.6c-1.6-0.9-2.7-2.6-2.7-4.5c0-2.8,2.3-5.1,5.2-5.1c2.8,0,5.1,2.3,5.1,5.1C52.9,49.2,51.8,50.9,50.2,51.7z"
	/>
</svg>
