<?xml version="1.0" encoding="utf-8"?>
<!-- Generator: Adobe Illustrator 18.0.0, SVG Export Plug-In . SVG Version: 6.00 Build 0)  -->
<!DOCTYPE svg PUBLIC "-//W3C//DTD SVG 1.1//EN" "http://www.w3.org/Graphics/SVG/1.1/DTD/svg11.dtd">
<svg version="1.1" id="Layer_1" xmlns="http://www.w3.org/2000/svg" xmlns:xlink="http://www.w3.org/1999/xlink" x="0px" y="0px"
	 viewBox="0 0 74.3 65" enable-background="new 0 0 74.3 65" xml:space="preserve">
<g>
	<path fill="#55A51C" d="M63.2,44c-14.6,14.6-38.5,14.7-53.1,0c-0.7-0.7-1.6-1.1-2.6-1.1c-0.9,0-1.9,0.4-2.6,1.1
		c-1.4,1.4-1.4,3.7,0,5.1c17.5,17.5,45.9,17.5,63.4,0c1.4-1.4,1.4-3.7,0-5.1C66.9,42.6,64.7,42.6,63.2,44z"/>
</g>
<path fill="#55A51C" d="M36.7,3.1c-6.8,0-12.3,5.5-12.3,12.3c0,6.8,5.5,12.3,12.3,12.3c6.8,0,12.3-5.5,12.3-12.3
	C49,8.6,43.4,3.1,36.7,3.1z"/>
<path fill="#55A51C" d="M46.5,29.1H26.7c-7,0-12.6,5.1-12.6,11.4c6.1,6,14.1,10,23,10c8.4,0,16.1-3.6,22.1-9.1v-0.9
	C59.1,34.3,53.4,29.1,46.5,29.1z"/>
</svg>
