<?xml version="1.0" encoding="utf-8"?>
<!-- Generator: Adobe Illustrator 18.0.0, SVG Export Plug-In . SVG Version: 6.00 Build 0)  -->
<!DOCTYPE svg PUBLIC "-//W3C//DTD SVG 1.1//EN" "http://www.w3.org/Graphics/SVG/1.1/DTD/svg11.dtd">
<svg version="1.1" id="Layer_1" xmlns="http://www.w3.org/2000/svg" xmlns:xlink="http://www.w3.org/1999/xlink" x="0px" y="0px"
	 viewBox="0 0 370 373" enable-background="new 0 0 370 373" xml:space="preserve">
<circle opacity="0.1" fill="#FFFFFF" cx="186.9" cy="187.2" r="170.1"/>
<circle opacity="0.1" fill="#FFFFFF" cx="186.9" cy="187.2" r="149.1"/>
<g>
	<path fill="#002C91" d="M98.4,151.5v-8.7H124v8.7h-7.7v30.7H106v-30.7H98.4z"/>
	<path fill="#002C91" d="M142.3,142.8c1.9,0,3.6,0.3,5,0.8c1.4,0.5,2.5,1.2,3.4,2.2c0.9,0.9,1.5,2,1.9,3.3c0.4,1.3,0.6,2.7,0.6,4.2
		c0,2.6-0.5,4.8-1.6,6.4c-1.1,1.6-2.8,2.6-5.1,3v0.1c2.4,0.2,4.1,1.1,5,2.6c0.9,1.5,1.4,3.6,1.4,6.2v3.4c0,0.5,0,1,0,1.6
		c0,0.6,0,1.1,0.1,1.6c0,0.5,0.1,0.9,0.2,1.4c0.1,0.4,0.2,0.7,0.3,0.9c0.1,0.2,0.3,0.4,0.4,0.6c0.1,0.2,0.4,0.4,0.7,0.6v0.6h-10.9
		c-0.3-0.5-0.4-1.1-0.6-1.8c-0.1-0.7-0.2-1.4-0.3-2.1c-0.1-0.7-0.1-1.4-0.1-2c0-0.6,0-1.2,0-1.6V172c0-1.1-0.1-2-0.2-2.8
		s-0.3-1.3-0.6-1.7c-0.3-0.4-0.6-0.7-1-0.9c-0.4-0.2-0.9-0.2-1.6-0.2h-2.7v15.8h-10.3v-39.4H142.3z M138.6,159.5
		c1.5,0,2.6-0.4,3.3-1.3c0.7-0.9,1-2,1-3.4c0-1.7-0.3-2.8-1-3.5c-0.7-0.7-1.8-1-3.3-1h-2v9.3H138.6z"/>
	<path fill="#002C91" d="M177.3,142.8l9.6,39.4H176l-1-6.9h-8.2l-1,6.9H155l9.4-39.4H177.3z M170.8,150.9l-2.8,16.7h5.7l-2.8-16.7
		H170.8z"/>
	<path fill="#002C91" d="M194.3,142.8l4.1,29.7h0.1l4.1-29.7h10.9l-8.5,39.4h-13.2l-8.3-39.4H194.3z"/>
	<path fill="#002C91" d="M238.6,142.8v8.4h-13.1v6.7h12.2v8.1h-12.2v7.8h13.6v8.4h-23.8v-39.4H238.6z"/>
	<path fill="#002C91" d="M253.1,142.8v31h12.6v8.4h-22.9v-39.4H253.1z"/>
	<path fill="#002C91" d="M122.6,191.7v8.3h-12.9v6.6h12.1v8h-12.1v7.7H123v8.3H99.5v-38.9H122.6z"/>
	<path fill="#002C91" d="M135.7,191.7l3.2,11.3h0.1l3.2-11.3h11.3l-8.4,19.2l9.1,19.7h-11.3l-3.9-11.7h-0.1l-3.9,11.7h-11.2l9-19.7
		l-8.6-19.2H135.7z"/>
	<path fill="#002C91" d="M153.6,200.3v-8.6h25.3v8.6h-7.6v30.3h-10.1v-30.3H153.6z"/>
	<path fill="#002C91" d="M197,191.7c1.9,0,3.6,0.3,4.9,0.8c1.4,0.5,2.5,1.2,3.3,2.2c0.9,0.9,1.5,2,1.8,3.3c0.4,1.3,0.6,2.7,0.6,4.1
		c0,2.6-0.5,4.7-1.6,6.3c-1,1.6-2.7,2.6-5,2.9v0.1c2.4,0.2,4.1,1.1,5,2.6c0.9,1.5,1.4,3.5,1.4,6.2v3.3c0,0.5,0,1,0,1.6
		c0,0.5,0,1.1,0.1,1.6c0,0.5,0.1,0.9,0.2,1.3c0.1,0.4,0.2,0.7,0.3,0.9c0.1,0.2,0.3,0.4,0.4,0.6c0.1,0.2,0.4,0.4,0.7,0.6v0.5h-10.7
		c-0.3-0.5-0.4-1.1-0.6-1.8c-0.1-0.7-0.2-1.4-0.3-2.1c-0.1-0.7-0.1-1.4-0.1-2c0-0.6,0-1.2,0-1.6v-2.6c0-1.1-0.1-2-0.2-2.7
		c-0.1-0.7-0.3-1.3-0.6-1.7c-0.3-0.4-0.6-0.7-1-0.9c-0.4-0.2-0.9-0.2-1.6-0.2h-2.7v15.6h-10.1v-38.9H197z M193.3,208.2
		c1.5,0,2.5-0.4,3.2-1.3c0.7-0.9,1-2,1-3.4c0-1.6-0.3-2.8-1-3.5c-0.7-0.7-1.8-1-3.3-1h-2v9.2H193.3z"/>
	<path fill="#002C91" d="M231.6,191.7l9.5,38.9h-10.8l-1-6.8h-8.1l-1,6.8h-10.6l9.3-38.9H231.6z M225.1,199.7l-2.8,16.5h5.7
		l-2.8-16.5H225.1z"/>
	<path fill="#002C91" d="M257.9,202c0-1.2-0.2-2.2-0.7-3s-1.2-1.2-2.2-1.2c-1.1,0-1.9,0.4-2.4,1.1c-0.5,0.7-0.8,1.5-0.8,2.4
		c0,1.3,0.4,2.3,1.2,3c0.8,0.7,1.8,1.4,3.1,1.9c1.2,0.5,2.6,1.1,4,1.7c1.4,0.6,2.7,1.3,4,2.2c1.2,0.9,2.3,2.1,3.1,3.6
		c0.8,1.5,1.2,3.4,1.2,5.8c0,4.1-1.2,7.1-3.5,9c-2.4,1.9-5.8,2.8-10.2,2.8c-2.1,0-4-0.2-5.6-0.5c-1.6-0.3-3-0.9-4.1-1.8
		c-1.1-0.9-2-2-2.5-3.4c-0.6-1.4-0.9-3.1-0.9-5.1v-1.4h9.8v0.9c0,1.7,0.3,2.8,0.9,3.5c0.6,0.7,1.4,1,2.4,1c1.1,0,1.9-0.4,2.4-1.1
		c0.6-0.7,0.8-1.6,0.8-2.7c0-1.3-0.4-2.3-1.2-3c-0.8-0.7-1.8-1.4-2.9-1.9c-1.2-0.5-2.5-1.1-3.8-1.6c-1.4-0.5-2.7-1.3-3.8-2.1
		c-1.2-0.9-2.2-2-2.9-3.4c-0.8-1.4-1.2-3.3-1.2-5.6c0-4,1.1-7,3.2-9c2.1-2.1,5.3-3.1,9.6-3.1c4.4,0,7.6,1,9.6,2.9c2,1.9,3,5,3,9.1
		h-9.5V202z"/>
</g>
<g>
	<g>
		<path fill="#FFFFFF" d="M191.9,316c-1.7,0-3.2-1.4-3.3-3.1c-0.1-1.8,1.3-3.4,3.1-3.5c0.5,0,1.1-0.1,1.6-0.1
			c1.8-0.2,3.4,1.2,3.6,3.1s-1.2,3.4-3.1,3.6c-0.6,0-1.1,0.1-1.7,0.1C192,316,191.9,316,191.9,316z M175.2,315.9c-0.1,0-0.2,0-0.2,0
			c-0.6,0-1.1-0.1-1.7-0.1c-1.8-0.2-3.2-1.8-3-3.6c0.2-1.8,1.8-3.2,3.6-3c0.5,0,1.1,0.1,1.6,0.1c1.8,0.1,3.2,1.7,3.1,3.6
			C178.4,314.5,177,315.9,175.2,315.9z M210,313.5c-1.5,0-2.9-1.1-3.3-2.6c-0.4-1.8,0.8-3.6,2.6-4c0.5-0.1,1.1-0.2,1.6-0.3
			c1.8-0.4,3.6,0.7,4,2.5c0.4,1.8-0.7,3.6-2.5,4c-0.6,0.1-1.1,0.3-1.7,0.4C210.5,313.5,210.3,313.5,210,313.5z M157.1,313.2
			c-0.2,0-0.5,0-0.7-0.1c-0.6-0.1-1.1-0.3-1.7-0.4c-1.8-0.4-2.9-2.2-2.5-4c0.4-1.8,2.2-2.9,4-2.5c0.5,0.1,1,0.2,1.6,0.4
			c1.8,0.4,2.9,2.2,2.5,4C160,312.1,158.6,313.2,157.1,313.2z M227.6,308.3c-1.4,0-2.6-0.8-3.1-2.2c-0.6-1.7,0.2-3.6,2-4.3
			c0.5-0.2,1-0.4,1.5-0.6c1.7-0.7,3.7,0.2,4.3,1.9c0.7,1.7-0.2,3.6-1.9,4.3c-0.5,0.2-1.1,0.4-1.6,0.6
			C228.4,308.3,228,308.3,227.6,308.3z M139.6,307.8c-0.4,0-0.8-0.1-1.2-0.2c-0.5-0.2-1.1-0.4-1.6-0.6c-1.7-0.7-2.5-2.6-1.8-4.3
			c0.7-1.7,2.6-2.5,4.3-1.8c0.5,0.2,1,0.4,1.5,0.6c1.7,0.7,2.6,2.6,1.9,4.3C142.2,307,140.9,307.8,139.6,307.8z M244.2,300.6
			c-1.2,0-2.3-0.6-2.9-1.7c-0.9-1.6-0.3-3.6,1.3-4.5c0.5-0.3,0.9-0.5,1.4-0.8c1.6-0.9,3.6-0.4,4.6,1.2c0.9,1.6,0.4,3.6-1.2,4.6
			c-0.5,0.3-1,0.6-1.5,0.8C245.3,300.5,244.8,300.6,244.2,300.6z M123.1,299.8c-0.6,0-1.1-0.1-1.7-0.4c-0.5-0.3-1-0.6-1.5-0.9
			c-1.6-0.9-2.1-3-1.2-4.6c0.9-1.6,3-2.1,4.6-1.2c0.5,0.3,0.9,0.6,1.4,0.8c1.6,0.9,2.1,3,1.2,4.6
			C125.4,299.2,124.2,299.8,123.1,299.8z M259.5,290.5c-1,0-2-0.4-2.6-1.3c-1.1-1.5-0.9-3.6,0.6-4.7c0.4-0.3,0.9-0.7,1.3-1
			c1.4-1.1,3.5-0.9,4.7,0.5c1.2,1.4,0.9,3.5-0.5,4.7c-0.4,0.4-0.9,0.7-1.3,1.1C260.9,290.3,260.2,290.5,259.5,290.5z M107.9,289.5
			c-0.7,0-1.5-0.2-2.1-0.7c-0.4-0.4-0.9-0.7-1.3-1.1c-1.4-1.2-1.6-3.3-0.5-4.7c1.2-1.4,3.3-1.6,4.7-0.5c0.4,0.3,0.8,0.7,1.3,1
			c1.4,1.1,1.7,3.2,0.5,4.7C109.9,289.1,108.9,289.5,107.9,289.5z M273,278.2c-0.8,0-1.7-0.3-2.3-0.9c-1.3-1.3-1.4-3.4-0.1-4.7
			c0.4-0.4,0.7-0.8,1.1-1.2c1.3-1.4,3.4-1.4,4.7-0.2c1.4,1.3,1.4,3.4,0.2,4.7c-0.4,0.4-0.8,0.8-1.2,1.2
			C274.8,277.9,273.9,278.2,273,278.2z M94.5,277c-0.9,0-1.8-0.4-2.4-1.1c-0.4-0.4-0.8-0.8-1.2-1.3c-1.2-1.4-1.1-3.5,0.2-4.7
			c1.4-1.2,3.5-1.1,4.7,0.2c0.4,0.4,0.7,0.8,1.1,1.2c1.3,1.4,1.2,3.5-0.2,4.7C96.1,276.8,95.3,277,94.5,277z M284.7,264
			c-0.7,0-1.3-0.2-1.9-0.6c-1.5-1.1-1.9-3.1-0.8-4.6c0.3-0.4,0.6-0.9,0.9-1.3c1-1.5,3.1-1.9,4.6-0.9c1.5,1,1.9,3.1,0.9,4.6
			c-0.3,0.5-0.6,0.9-1,1.4C286.7,263.6,285.7,264,284.7,264z M83.1,262.7c-1.1,0-2.1-0.5-2.8-1.5c-0.3-0.5-0.6-0.9-1-1.4
			c-1-1.5-0.6-3.6,0.9-4.6c1.5-1,3.6-0.6,4.6,0.9c0.3,0.5,0.6,0.9,0.9,1.3c1,1.5,0.6,3.6-0.9,4.6C84.4,262.6,83.7,262.7,83.1,262.7z
			 M294.1,248.3c-0.5,0-1-0.1-1.5-0.3c-1.6-0.8-2.3-2.8-1.5-4.5c0.2-0.5,0.5-1,0.7-1.5c0.8-1.7,2.8-2.4,4.5-1.6
			c1.7,0.8,2.4,2.8,1.6,4.5c-0.2,0.5-0.5,1-0.8,1.5C296.5,247.6,295.3,248.3,294.1,248.3z M73.9,246.9c-1.2,0-2.4-0.7-3-1.9
			c-0.2-0.5-0.5-1-0.7-1.5c-0.8-1.7-0.1-3.7,1.6-4.4c1.7-0.8,3.7-0.1,4.4,1.6c0.2,0.5,0.5,1,0.7,1.5c0.8,1.7,0.1,3.7-1.6,4.5
			C74.9,246.8,74.4,246.9,73.9,246.9z M301,231.3c-0.3,0-0.7-0.1-1-0.2c-1.8-0.6-2.7-2.5-2.1-4.2c0.2-0.5,0.3-1,0.5-1.5
			c0.5-1.8,2.4-2.7,4.2-2.2c1.8,0.5,2.7,2.4,2.2,4.2c-0.2,0.6-0.3,1.1-0.5,1.6C303.7,230.4,302.4,231.3,301,231.3z M67.2,229.9
			c-1.4,0-2.7-0.9-3.2-2.4c-0.2-0.5-0.3-1.1-0.5-1.6c-0.5-1.8,0.5-3.6,2.3-4.1c1.8-0.5,3.6,0.5,4.1,2.3c0.2,0.5,0.3,1,0.5,1.5
			c0.5,1.8-0.4,3.6-2.2,4.2C67.8,229.8,67.5,229.9,67.2,229.9z M305.3,213.5c-0.2,0-0.4,0-0.5,0c-1.8-0.3-3.1-2-2.8-3.8
			c0.1-0.5,0.2-1.1,0.2-1.6c0.3-1.8,2-3.1,3.8-2.8c1.8,0.3,3.1,2,2.8,3.8c-0.1,0.6-0.2,1.1-0.3,1.7
			C308.3,212.4,306.9,213.5,305.3,213.5z M63.1,212c-1.6,0-3-1.2-3.3-2.8c-0.1-0.6-0.2-1.1-0.2-1.7c-0.2-1.8,1-3.5,2.9-3.8
			c1.8-0.3,3.5,1,3.8,2.9c0.1,0.5,0.1,1.1,0.2,1.6c0.3,1.8-1,3.5-2.8,3.8C63.4,212,63.3,212,63.1,212z M61.7,193.7
			c-1.8,0-3.3-1.4-3.3-3.3v-0.1c0-0.5,0-1.1,0-1.6c0-1.8,1.5-3.4,3.4-3.3c1.8,0,3.3,1.5,3.3,3.4c0,0.5,0,1,0,1.5
			C65.1,192.1,63.6,193.7,61.7,193.7z M63.1,175.5c-0.2,0-0.3,0-0.5,0c-1.8-0.3-3.1-2-2.8-3.8c0.1-0.6,0.2-1.1,0.3-1.7
			c0.3-1.8,2-3.1,3.8-2.8c1.8,0.3,3.1,2,2.8,3.8c-0.1,0.5-0.2,1.1-0.2,1.6C66.1,174.3,64.7,175.5,63.1,175.5z M301.9,158.9
			c-1.4,0-2.8-0.9-3.2-2.4c-0.2-0.5-0.3-1-0.5-1.6c-0.5-1.8,0.4-3.6,2.2-4.2c1.8-0.6,3.6,0.4,4.2,2.2c0.2,0.5,0.3,1.1,0.5,1.6
			c0.5,1.8-0.5,3.6-2.2,4.1C302.5,158.8,302.2,158.9,301.9,158.9z M67.1,157.6c-0.3,0-0.7,0-1-0.1c-1.8-0.5-2.7-2.4-2.2-4.2
			c0.2-0.5,0.3-1.1,0.5-1.6c0.6-1.8,2.4-2.7,4.2-2.1c1.8,0.6,2.7,2.4,2.1,4.2c-0.2,0.5-0.3,1-0.5,1.6
			C69.9,156.7,68.5,157.6,67.1,157.6z M295.4,141.7c-1.2,0-2.4-0.7-3-1.9l-0.7-1.5c-0.8-1.7-0.1-3.7,1.6-4.5
			c1.7-0.8,3.7-0.1,4.5,1.6l0.7,1.5c0.8,1.7,0.1,3.7-1.6,4.4C296.4,141.6,295.9,141.7,295.4,141.7z M73.8,140.5
			c-0.5,0-1-0.1-1.4-0.3c-1.7-0.8-2.4-2.8-1.6-4.5c0.2-0.5,0.5-1,0.8-1.5c0.8-1.6,2.8-2.3,4.5-1.5c1.6,0.8,2.3,2.8,1.5,4.5
			c-0.2,0.5-0.5,1-0.7,1.5C76.2,139.8,75,140.5,73.8,140.5z M286.4,125.8c-1.1,0-2.1-0.5-2.8-1.5c-0.3-0.4-0.6-0.9-0.9-1.3
			c-1-1.5-0.6-3.6,0.9-4.6c1.5-1,3.6-0.6,4.6,0.9c0.3,0.5,0.6,0.9,1,1.4c1,1.5,0.6,3.6-0.9,4.6C287.7,125.6,287.1,125.8,286.4,125.8
			z M83,124.7c-0.6,0-1.3-0.2-1.9-0.6c-1.5-1-1.9-3.1-0.9-4.6c0.3-0.5,0.6-0.9,1-1.4c1.1-1.5,3.1-1.9,4.6-0.8
			c1.5,1.1,1.9,3.1,0.8,4.6c-0.3,0.4-0.6,0.9-0.9,1.3C85.1,124.2,84,124.7,83,124.7z M275.2,111.3c-0.9,0-1.8-0.4-2.5-1.1
			c-0.4-0.4-0.7-0.8-1.1-1.2c-1.3-1.4-1.2-3.5,0.2-4.7c1.3-1.3,3.5-1.2,4.7,0.2c0.4,0.4,0.8,0.8,1.2,1.3c1.2,1.4,1.1,3.5-0.2,4.7
			C276.8,111,276,111.3,275.2,111.3z M94.4,110.3c-0.8,0-1.6-0.3-2.3-0.9c-1.4-1.3-1.4-3.4-0.2-4.7c0.4-0.4,0.8-0.8,1.2-1.2
			c1.3-1.3,3.4-1.4,4.7-0.1c1.3,1.3,1.4,3.4,0.1,4.7c-0.4,0.4-0.7,0.8-1.1,1.2C96.2,110,95.3,110.3,94.4,110.3z M261.9,98.7
			c-0.7,0-1.5-0.2-2.1-0.8c-0.4-0.3-0.8-0.7-1.3-1c-1.4-1.1-1.7-3.2-0.5-4.7c1.1-1.4,3.3-1.7,4.7-0.5c0.4,0.4,0.9,0.7,1.3,1.1
			c1.4,1.2,1.6,3.3,0.5,4.7C263.8,98.3,262.9,98.7,261.9,98.7z M107.8,97.9c-1,0-1.9-0.4-2.6-1.3c-1.2-1.4-0.9-3.5,0.5-4.7
			c0.4-0.4,0.9-0.7,1.3-1.1c1.5-1.1,3.5-0.9,4.7,0.6c1.1,1.5,0.9,3.5-0.6,4.7c-0.4,0.3-0.9,0.7-1.3,1
			C109.3,97.6,108.5,97.9,107.8,97.9z M246.9,88.2c-0.6,0-1.2-0.1-1.7-0.5c-0.5-0.3-0.9-0.6-1.4-0.8c-1.6-0.9-2.1-3-1.2-4.6
			c0.9-1.6,3-2.1,4.6-1.2c0.5,0.3,1,0.6,1.5,0.9c1.6,0.9,2.1,3,1.2,4.6C249.1,87.6,248,88.2,246.9,88.2z M122.9,87.5
			c-1.1,0-2.3-0.6-2.9-1.7c-0.9-1.6-0.4-3.6,1.2-4.6c0.5-0.3,1-0.6,1.5-0.9c1.6-0.9,3.6-0.3,4.5,1.3c0.9,1.6,0.3,3.6-1.3,4.5
			c-0.5,0.3-0.9,0.5-1.4,0.8C124,87.4,123.5,87.5,122.9,87.5z M230.5,80c-0.4,0-0.8-0.1-1.2-0.2c-0.5-0.2-1-0.4-1.5-0.6
			c-1.7-0.7-2.6-2.6-1.9-4.3c0.7-1.7,2.6-2.6,4.3-1.9c0.5,0.2,1.1,0.4,1.6,0.6c1.7,0.7,2.5,2.6,1.8,4.3
			C233.1,79.2,231.8,80,230.5,80z M139.4,79.5c-1.3,0-2.6-0.8-3.1-2.1c-0.7-1.7,0.2-3.6,1.9-4.3c0.5-0.2,1.1-0.4,1.6-0.6
			c1.7-0.7,3.6,0.2,4.3,1.9c0.7,1.7-0.2,3.6-1.9,4.3c-0.5,0.2-1,0.4-1.5,0.6C140.2,79.5,139.8,79.5,139.4,79.5z M213,74.4
			c-0.3,0-0.5,0-0.8-0.1c-0.5-0.1-1-0.2-1.6-0.4c-1.8-0.4-2.9-2.2-2.5-4c0.4-1.8,2.2-2.9,4-2.5c0.6,0.1,1.1,0.3,1.7,0.4
			c1.8,0.4,2.9,2.2,2.5,4C215.9,73.4,214.5,74.4,213,74.4z M156.9,74.1c-1.5,0-2.9-1-3.2-2.6c-0.4-1.8,0.7-3.6,2.5-4
			c0.6-0.1,1.1-0.3,1.7-0.4c1.8-0.4,3.6,0.8,4,2.6c0.4,1.8-0.8,3.6-2.6,4c-0.5,0.1-1.1,0.2-1.6,0.3
			C157.4,74.1,157.1,74.1,156.9,74.1z M195,71.5c-0.1,0-0.2,0-0.3,0c-0.5,0-1.1-0.1-1.6-0.1c-1.8-0.1-3.2-1.7-3.1-3.6
			c0.1-1.8,1.7-3.2,3.6-3.1c0.6,0,1.1,0.1,1.7,0.1c1.8,0.2,3.2,1.8,3,3.6C198.1,70.2,196.7,71.5,195,71.5z M175,71.4
			c-1.7,0-3.2-1.3-3.3-3.1c-0.1-1.8,1.2-3.4,3.1-3.6c0.6,0,1.1-0.1,1.7-0.1c1.9-0.1,3.4,1.3,3.5,3.1c0.1,1.8-1.3,3.4-3.1,3.5
			c-0.5,0-1.1,0.1-1.6,0.1C175.1,71.4,175.1,71.4,175,71.4z"/>
	</g>
	<path fill="#FFFFFF" d="M308.1,184.4l3.5-5l0,0l4.9-7c1-1.4,0.6-3.3-0.8-4.2c-1.4-1-3.3-0.6-4.2,0.8l-4.9,7l-7-4.9
		c-1.4-1-3.3-0.6-4.2,0.8c-1,1.4-0.6,3.3,0.8,4.2l7,4.9h0L308.1,184.4z"/>
</g>
</svg>
