<?xml version="1.0" encoding="utf-8"?>
<!-- Generator: Adobe Illustrator 18.0.0, SVG Export Plug-In . SVG Version: 6.00 Build 0)  -->
<!DOCTYPE svg PUBLIC "-//W3C//DTD SVG 1.1//EN" "http://www.w3.org/Graphics/SVG/1.1/DTD/svg11.dtd">
<svg version="1.1" id="Layer_1" xmlns="http://www.w3.org/2000/svg" xmlns:xlink="http://www.w3.org/1999/xlink" x="0px" y="0px"
	 viewBox="0 0 640 635.5" enable-background="new 0 0 640 635.5" xml:space="preserve">
<g>
	<path fill="#FFFFFF" d="M327.1,522.7c-3.1,0-5.7-2.4-5.8-5.5c-0.2-3.2,2.3-6,5.5-6.2c1-0.1,1.9-0.1,2.9-0.2c3.2-0.3,6,2.2,6.3,5.4
		c0.2,3.2-2.2,6-5.4,6.3c-1,0.1-2,0.1-3,0.2C327.3,522.7,327.2,522.7,327.1,522.7z M297.8,522.5c-0.1,0-0.3,0-0.4,0
		c-1-0.1-2-0.2-3-0.2c-3.2-0.3-5.6-3.1-5.3-6.4c0.3-3.2,3.1-5.6,6.4-5.3c0.9,0.1,1.9,0.2,2.8,0.2c3.2,0.2,5.7,3,5.4,6.3
		C303.4,520.2,300.9,522.5,297.8,522.5z M359,518.4c-2.7,0-5.1-1.9-5.7-4.6c-0.7-3.2,1.4-6.3,4.5-7c0.9-0.2,1.9-0.4,2.8-0.6
		c3.2-0.7,6.3,1.3,7,4.4c0.7,3.2-1.2,6.3-4.4,7c-1,0.2-2,0.4-3,0.6C359.8,518.3,359.4,518.4,359,518.4z M266,517.8
		c-0.4,0-0.9,0-1.3-0.1c-1-0.2-2-0.5-2.9-0.7c-3.1-0.8-5.1-3.9-4.3-7.1c0.8-3.1,3.9-5.1,7.1-4.3c0.9,0.2,1.8,0.4,2.8,0.6
		c3.2,0.7,5.1,3.8,4.4,7C271.1,516,268.7,517.8,266,517.8z M389.8,509.3c-2.4,0-4.6-1.5-5.5-3.8c-1.1-3,0.4-6.4,3.4-7.5
		c0.9-0.3,1.8-0.7,2.6-1c3-1.2,6.4,0.3,7.6,3.3c1.2,3-0.3,6.4-3.3,7.6c-0.9,0.4-1.9,0.7-2.8,1.1
		C391.2,509.2,390.5,509.3,389.8,509.3z M235.2,508.3c-0.7,0-1.4-0.1-2.1-0.4c-0.9-0.4-1.9-0.7-2.8-1.1c-3-1.2-4.4-4.6-3.2-7.6
		c1.2-3,4.6-4.4,7.6-3.2c0.9,0.4,1.8,0.7,2.7,1.1c3,1.2,4.5,4.6,3.3,7.6C239.8,506.9,237.5,508.3,235.2,508.3z M419,495.7
		c-2,0-4-1.1-5.1-3c-1.6-2.8-0.6-6.4,2.2-8c0.8-0.5,1.7-0.9,2.5-1.4c2.8-1.6,6.4-0.7,8,2.1c1.6,2.8,0.7,6.4-2.1,8
		c-0.9,0.5-1.7,1-2.6,1.5C421,495.5,420,495.7,419,495.7z M206.2,494.4c-1,0-2-0.3-2.9-0.8c-0.9-0.5-1.7-1-2.6-1.5
		c-2.8-1.7-3.7-5.3-2-8c1.7-2.8,5.3-3.7,8-2c0.8,0.5,1.6,1,2.5,1.4c2.8,1.6,3.8,5.2,2.1,8C210.2,493.3,208.2,494.4,206.2,494.4z
		 M445.8,478c-1.7,0-3.5-0.8-4.6-2.3c-2-2.6-1.5-6.2,1-8.2c0.7-0.6,1.5-1.2,2.2-1.8c2.5-2,6.2-1.6,8.2,0.9c2,2.5,1.6,6.2-0.9,8.2
		c-0.8,0.6-1.6,1.2-2.4,1.9C448.3,477.5,447.1,478,445.8,478z M179.6,476.2c-1.3,0-2.6-0.4-3.7-1.3c-0.8-0.6-1.6-1.3-2.3-1.9
		c-2.5-2-2.9-5.7-0.8-8.2c2-2.5,5.7-2.9,8.2-0.8c0.7,0.6,1.5,1.2,2.2,1.8c2.5,2,2.9,5.7,0.9,8.2C183,475.5,181.3,476.2,179.6,476.2z
		 M469.7,456.4c-1.5,0-2.9-0.5-4-1.6c-2.3-2.2-2.4-5.9-0.2-8.3c0.7-0.7,1.3-1.4,2-2.1c2.2-2.4,5.9-2.5,8.3-0.3
		c2.4,2.2,2.5,5.9,0.3,8.3c-0.7,0.7-1.4,1.5-2.1,2.2C472.8,455.8,471.2,456.4,469.7,456.4z M156,454.3c-1.6,0-3.1-0.6-4.3-1.9
		c-0.7-0.7-1.4-1.5-2-2.2c-2.2-2.4-2-6.1,0.4-8.3c2.4-2.2,6.1-2,8.3,0.4c0.6,0.7,1.3,1.4,1.9,2.1c2.2,2.4,2.1,6.1-0.3,8.3
		C158.9,453.8,157.4,454.3,156,454.3z M490.1,431.5c-1.2,0-2.3-0.3-3.4-1.1c-2.6-1.9-3.3-5.5-1.4-8.2c0.5-0.8,1.1-1.6,1.6-2.4
		c1.8-2.7,5.5-3.4,8.1-1.5c2.7,1.8,3.4,5.5,1.5,8.1c-0.6,0.8-1.1,1.6-1.7,2.5C493.8,430.6,491.9,431.5,490.1,431.5z M135.9,429.2
		c-1.9,0-3.7-0.9-4.8-2.6c-0.6-0.8-1.1-1.6-1.7-2.5c-1.8-2.7-1.1-6.3,1.6-8.1c2.7-1.8,6.3-1.1,8.1,1.6c0.5,0.8,1.1,1.6,1.6,2.4
		c1.8,2.7,1.1,6.3-1.5,8.1C138.2,428.9,137,429.2,135.9,429.2z M506.6,403.9c-0.9,0-1.8-0.2-2.6-0.6c-2.9-1.4-4.1-5-2.6-7.9
		c0.4-0.9,0.8-1.7,1.3-2.6c1.4-2.9,4.9-4.1,7.8-2.7c2.9,1.4,4.1,4.9,2.7,7.8c-0.4,0.9-0.9,1.8-1.3,2.7
		C510.8,402.7,508.7,403.9,506.6,403.9z M119.8,401.4c-2.2,0-4.3-1.2-5.3-3.3c-0.4-0.9-0.9-1.8-1.3-2.7c-1.4-2.9-0.1-6.4,2.8-7.8
		c2.9-1.4,6.4-0.1,7.8,2.8c0.4,0.9,0.8,1.7,1.2,2.6c1.4,2.9,0.2,6.4-2.7,7.8C121.5,401.2,120.6,401.4,119.8,401.4z M518.8,374
		c-0.6,0-1.2-0.1-1.8-0.3c-3.1-1-4.8-4.3-3.8-7.4c0.3-0.9,0.6-1.8,0.9-2.7c1-3.1,4.2-4.8,7.3-3.9c3.1,1,4.8,4.2,3.9,7.3
		c-0.3,1-0.6,1.9-0.9,2.9C523.5,372.5,521.2,374,518.8,374z M108,371.4c-2.5,0-4.8-1.6-5.6-4.1c-0.3-1-0.6-1.9-0.9-2.9
		c-0.9-3.1,0.9-6.4,4-7.3c3.1-0.9,6.4,0.9,7.3,4c0.3,0.9,0.5,1.8,0.8,2.7c1,3.1-0.8,6.4-3.9,7.3C109.1,371.4,108.6,371.4,108,371.4z
		 M526.3,342.7c-0.3,0-0.6,0-1-0.1c-3.2-0.5-5.4-3.5-4.8-6.7c0.2-0.9,0.3-1.9,0.4-2.8c0.5-3.2,3.4-5.4,6.7-4.9
		c3.2,0.5,5.4,3.5,4.9,6.7c-0.1,1-0.3,2-0.5,3C531.7,340.7,529.2,342.7,526.3,342.7z M100.8,340.1c-2.8,0-5.3-2.1-5.8-5
		c-0.1-1-0.3-2-0.4-3c-0.4-3.2,1.8-6.2,5-6.6c3.2-0.5,6.2,1.8,6.6,5c0.1,0.9,0.3,1.9,0.4,2.8c0.5,3.2-1.7,6.2-4.9,6.7
		C101.4,340,101.1,340.1,100.8,340.1z M98.4,307.9c-3.2,0-5.9-2.5-5.9-5.7v-0.2c0-0.9,0-1.9,0-2.8c0-3.2,2.7-5.9,5.9-5.8
		c3.2,0,5.8,2.7,5.8,5.9c0,0.9,0,1.8,0,2.6C104.3,305.1,101.6,307.9,98.4,307.9z M100.8,275.9c-0.3,0-0.6,0-0.9-0.1
		c-3.2-0.5-5.4-3.5-4.9-6.7c0.1-1,0.3-2,0.5-3c0.5-3.2,3.5-5.4,6.7-4.8c3.2,0.5,5.4,3.5,4.8,6.7c-0.2,0.9-0.3,1.9-0.4,2.8
		C106.1,273.8,103.6,275.9,100.8,275.9z M520.4,246.7c-2.5,0-4.9-1.6-5.6-4.2c-0.3-0.9-0.5-1.8-0.8-2.7c-1-3.1,0.8-6.4,3.9-7.3
		c3.1-1,6.4,0.8,7.3,3.9c0.3,1,0.6,1.9,0.9,2.9c0.9,3.1-0.8,6.4-4,7.3C521.5,246.6,520.9,246.7,520.4,246.7z M107.9,244.5
		c-0.6,0-1.2-0.1-1.7-0.3c-3.1-1-4.8-4.2-3.9-7.3c0.3-1,0.6-1.9,0.9-2.9c1-3.1,4.3-4.8,7.4-3.8c3.1,1,4.8,4.3,3.8,7.4
		c-0.3,0.9-0.6,1.8-0.9,2.7C112.7,242.9,110.4,244.5,107.9,244.5z M509,216.6c-2.2,0-4.3-1.2-5.3-3.4l-1.2-2.6
		c-1.4-2.9-0.2-6.4,2.7-7.8c2.9-1.4,6.4-0.2,7.8,2.7l1.3,2.7c1.4,2.9,0.1,6.4-2.8,7.8C510.7,216.4,509.8,216.6,509,216.6z
		 M119.6,214.5c-0.9,0-1.7-0.2-2.5-0.6c-2.9-1.4-4.1-4.9-2.7-7.8c0.4-0.9,0.9-1.8,1.3-2.7c1.4-2.9,5-4.1,7.9-2.6
		c2.9,1.4,4.1,5,2.6,7.9c-0.4,0.9-0.8,1.7-1.3,2.6C123.9,213.3,121.8,214.5,119.6,214.5z M493.2,188.5c-1.9,0-3.8-0.9-4.9-2.6
		c-0.5-0.8-1.1-1.6-1.6-2.4c-1.8-2.7-1.1-6.3,1.5-8.1c2.7-1.8,6.3-1.1,8.1,1.5c0.6,0.8,1.1,1.7,1.7,2.5c1.8,2.7,1.1,6.3-1.6,8.1
		C495.4,188.2,494.3,188.5,493.2,188.5z M135.7,186.6c-1.1,0-2.3-0.3-3.3-1c-2.7-1.8-3.4-5.5-1.5-8.1c0.6-0.8,1.1-1.7,1.7-2.5
		c1.9-2.6,5.5-3.3,8.2-1.4c2.6,1.9,3.3,5.5,1.4,8.2c-0.5,0.8-1.1,1.6-1.6,2.3C139.4,185.7,137.6,186.6,135.7,186.6z M473.4,163.2
		c-1.6,0-3.2-0.6-4.3-1.9c-0.6-0.7-1.3-1.4-1.9-2.1c-2.2-2.4-2.1-6.1,0.3-8.3c2.4-2.2,6.1-2.1,8.3,0.3c0.7,0.7,1.4,1.5,2,2.2
		c2.2,2.4,2,6.1-0.4,8.3C476.2,162.7,474.8,163.2,473.4,163.2z M155.8,161.4c-1.4,0-2.9-0.5-4-1.6c-2.4-2.2-2.5-5.9-0.3-8.3
		c0.7-0.7,1.4-1.5,2.1-2.2c2.2-2.3,5.9-2.4,8.3-0.2c2.3,2.2,2.4,5.9,0.2,8.3c-0.7,0.7-1.3,1.4-2,2.1
		C158.9,160.8,157.3,161.4,155.8,161.4z M450.1,141c-1.3,0-2.6-0.4-3.7-1.3c-0.7-0.6-1.5-1.2-2.2-1.8c-2.5-2-2.9-5.7-0.9-8.2
		c2-2.5,5.7-2.9,8.2-0.9c0.8,0.6,1.6,1.3,2.3,1.9c2.5,2,2.9,5.7,0.8,8.2C453.5,140.3,451.8,141,450.1,141z M179.3,139.5
		c-1.7,0-3.4-0.8-4.6-2.2c-2-2.5-1.6-6.2,0.9-8.2c0.8-0.6,1.6-1.2,2.4-1.9c2.5-2,6.2-1.5,8.2,1c2,2.5,1.5,6.2-1,8.2
		c-0.7,0.6-1.5,1.2-2.2,1.8C181.9,139.1,180.6,139.5,179.3,139.5z M423.7,122.5c-1,0-2-0.3-3-0.8c-0.8-0.5-1.7-1-2.5-1.5
		c-2.8-1.6-3.8-5.2-2.1-8c1.6-2.8,5.2-3.8,8-2.1c0.9,0.5,1.7,1,2.6,1.5c2.8,1.6,3.7,5.2,2.1,8C427.7,121.5,425.7,122.5,423.7,122.5z
		 M205.9,121.3c-2,0-4-1-5.1-2.9c-1.6-2.8-0.7-6.4,2.1-8c0.9-0.5,1.7-1,2.6-1.5c2.8-1.6,6.4-0.6,8,2.3c1.6,2.8,0.6,6.4-2.3,8
		c-0.8,0.5-1.6,0.9-2.4,1.4C207.9,121.1,206.9,121.3,205.9,121.3z M394.9,108.2c-0.7,0-1.5-0.1-2.2-0.4c-0.9-0.4-1.8-0.7-2.7-1.1
		c-3-1.2-4.5-4.6-3.3-7.6c1.2-3,4.6-4.5,7.6-3.3c0.9,0.4,1.9,0.7,2.8,1.1c3,1.2,4.5,4.6,3.2,7.6
		C399.4,106.8,397.2,108.2,394.9,108.2z M234.8,107.3c-2.3,0-4.5-1.4-5.5-3.7c-1.2-3,0.3-6.4,3.3-7.6c0.9-0.4,1.9-0.7,2.8-1.1
		c3-1.1,6.4,0.4,7.6,3.4c1.1,3-0.4,6.4-3.4,7.6c-0.9,0.3-1.8,0.7-2.7,1C236.2,107.2,235.5,107.3,234.8,107.3z M364.2,98.3
		c-0.5,0-0.9-0.1-1.4-0.2c-0.9-0.2-1.8-0.4-2.8-0.6c-3.2-0.7-5.1-3.8-4.4-7c0.7-3.2,3.8-5.1,7-4.4c1,0.2,2,0.4,2.9,0.7
		c3.1,0.8,5.1,3.9,4.3,7.1C369.3,96.5,366.9,98.3,364.2,98.3z M265.5,97.8c-2.7,0-5.1-1.8-5.7-4.6c-0.7-3.2,1.2-6.3,4.4-7
		c1-0.2,2-0.4,3-0.7c3.2-0.7,6.3,1.4,6.9,4.5c0.7,3.2-1.4,6.3-4.5,7c-0.9,0.2-1.9,0.4-2.8,0.6C266.4,97.8,266,97.8,265.5,97.8z
		 M332.5,93.2c-0.2,0-0.3,0-0.5,0c-0.9-0.1-1.9-0.2-2.8-0.2c-3.2-0.2-5.7-3-5.4-6.3c0.2-3.2,3-5.6,6.3-5.4c1,0.1,2,0.2,3,0.2
		c3.2,0.3,5.6,3.1,5.3,6.3C338,90.9,335.5,93.2,332.5,93.2z M297.4,93c-3,0-5.6-2.3-5.8-5.4c-0.2-3.2,2.2-6,5.4-6.3
		c1-0.1,2-0.1,3-0.2c3.3-0.2,6,2.3,6.2,5.5c0.2,3.2-2.3,6-5.5,6.2c-0.9,0.1-1.9,0.1-2.8,0.2C297.7,93,297.5,93,297.4,93z"/>
</g>
<g>
	<path fill="#002C91" d="M162.8,233.8v-15.3h44.9v15.3h-13.6v53.9h-18v-53.9H162.8z"/>
	<path fill="#002C91" d="M240,218.5c3.4,0,6.3,0.5,8.7,1.4c2.4,0.9,4.4,2.2,5.9,3.8c1.5,1.6,2.6,3.6,3.3,5.9c0.7,2.3,1,4.7,1,7.4
		c0,4.7-0.9,8.4-2.8,11.2c-1.9,2.8-4.8,4.6-9,5.2v0.2c4.3,0.4,7.3,1.9,8.9,4.6c1.6,2.6,2.4,6.3,2.4,10.9v5.9c0,0.9,0,1.8,0,2.8
		c0,1,0,1.9,0.1,2.8c0.1,0.9,0.2,1.7,0.3,2.4c0.1,0.7,0.3,1.3,0.5,1.6c0.3,0.4,0.5,0.8,0.8,1.1c0.3,0.4,0.7,0.7,1.3,1v1h-19.1
		c-0.5-0.9-0.8-2-1-3.2c-0.2-1.2-0.4-2.5-0.5-3.7c-0.1-1.2-0.2-2.4-0.2-3.5c0-1.1,0-2,0-2.8v-4.7c0-1.9-0.1-3.6-0.3-4.8
		c-0.2-1.3-0.5-2.3-1-3.1c-0.5-0.7-1.1-1.3-1.8-1.5c-0.7-0.3-1.7-0.4-2.8-0.4h-4.7v27.7h-18v-69.2H240z M233.5,247.7
		c2.6,0,4.5-0.8,5.7-2.3c1.2-1.5,1.8-3.5,1.8-6c0-2.9-0.6-5-1.8-6.2c-1.2-1.2-3.2-1.8-5.9-1.8h-3.5v16.3H233.5z"/>
	<path fill="#002C91" d="M301.5,218.5l16.9,69.2h-19.2l-1.8-12.1H283l-1.8,12.1h-18.9l16.6-69.2H301.5z M290,232.6l-4.9,29.4h10.1
		l-4.9-29.4H290z"/>
	<path fill="#002C91" d="M331.3,218.5l7.3,52.1h0.2l7.3-52.1h19.2l-14.9,69.2H327l-14.6-69.2H331.3z"/>
	<path fill="#002C91" d="M409.1,218.5v14.7h-23V245h21.5v14.1h-21.5v13.8H410v14.7h-41.8v-69.2H409.1z"/>
	<path fill="#002C91" d="M434.6,218.5v54.4h22.2v14.7h-40.2v-69.2H434.6z"/>
	<path fill="#002C91" d="M205.3,304.4V319h-22.7v11.7h21.3v14h-21.3v13.6h23.6v14.6h-41.4v-68.4H205.3z"/>
	<path fill="#002C91" d="M228.3,304.4l5.6,19.8h0.2l5.6-19.8h19.9l-14.8,33.7l16,34.7H241l-6.8-20.6H234l-6.8,20.6h-19.6l15.9-34.7
		l-15-33.7H228.3z"/>
	<path fill="#002C91" d="M259.8,319.6v-15.1h44.4v15.1h-13.4v53.2H273v-53.2H259.8z"/>
	<path fill="#002C91" d="M336,304.4c3.4,0,6.3,0.4,8.6,1.3c2.4,0.9,4.3,2.2,5.8,3.8c1.5,1.6,2.6,3.6,3.2,5.8c0.7,2.2,1,4.7,1,7.3
		c0,4.6-0.9,8.3-2.8,11.1c-1.8,2.8-4.8,4.5-8.9,5.2v0.2c4.3,0.4,7.2,1.9,8.8,4.5c1.6,2.6,2.4,6.2,2.4,10.8v5.8c0,0.9,0,1.8,0,2.8
		c0,1,0,1.9,0.1,2.7c0.1,0.9,0.2,1.6,0.3,2.3c0.1,0.7,0.3,1.2,0.5,1.6c0.3,0.4,0.5,0.7,0.8,1.1c0.3,0.4,0.7,0.7,1.2,1v1h-18.9
		c-0.4-0.9-0.8-1.9-1-3.2c-0.2-1.2-0.4-2.4-0.5-3.6c-0.1-1.2-0.2-2.4-0.2-3.5c0-1.1,0-2,0-2.7v-4.6c0-1.9-0.1-3.5-0.3-4.8
		c-0.2-1.3-0.5-2.3-1-3c-0.5-0.7-1.1-1.2-1.8-1.5c-0.7-0.3-1.6-0.4-2.7-0.4H326v27.4h-17.8v-68.4H336z M329.6,333.3
		c2.6,0,4.4-0.7,5.7-2.2c1.2-1.5,1.8-3.5,1.8-5.9c0-2.9-0.6-4.9-1.8-6.1c-1.2-1.2-3.1-1.8-5.8-1.8H326v16.1H329.6z"/>
	<path fill="#002C91" d="M396.8,304.4l16.7,68.4h-19l-1.8-12h-14.2l-1.8,12H358l16.4-68.4H396.8z M385.5,318.4l-4.9,29h10l-4.9-29
		H385.5z"/>
	<path fill="#002C91" d="M443.1,322.5c0-2-0.4-3.8-1.2-5.2c-0.8-1.4-2.1-2.2-3.8-2.2c-1.9,0-3.3,0.6-4.2,1.9
		c-0.9,1.2-1.3,2.6-1.3,4.2c0,2.2,0.7,4,2.2,5.3c1.4,1.3,3.2,2.4,5.4,3.4c2.2,1,4.5,1.9,7,2.9c2.5,1,4.8,2.3,7,3.9
		c2.2,1.6,4,3.7,5.4,6.3c1.4,2.6,2.2,6,2.2,10.1c0,7.3-2.1,12.6-6.2,15.8c-4.2,3.3-10.2,4.9-18,4.9c-3.7,0-7-0.3-9.8-0.9
		s-5.2-1.7-7.2-3.2c-1.9-1.5-3.4-3.5-4.5-5.9c-1-2.4-1.5-5.4-1.5-9v-2.4h17.2v1.6c0,2.9,0.5,5,1.6,6.2c1.1,1.2,2.5,1.8,4.2,1.8
		c1.9,0,3.3-0.6,4.3-1.9c1-1.3,1.5-2.8,1.5-4.7c0-2.2-0.7-4-2.1-5.3c-1.4-1.3-3.1-2.4-5.2-3.4c-2.1-0.9-4.3-1.9-6.8-2.8
		c-2.4-1-4.7-2.2-6.8-3.7c-2.1-1.5-3.8-3.5-5.2-6c-1.4-2.5-2.1-5.7-2.1-9.8c0-7,1.9-12.3,5.6-15.9c3.7-3.6,9.3-5.5,16.9-5.5
		c7.8,0,13.4,1.7,16.9,5c3.5,3.4,5.2,8.7,5.2,16h-16.7V322.5z"/>
</g>
<path fill="#FFFFFF" d="M531.2,291.6l6.1-8.7l0,0l8.6-12.3c1.7-2.4,1.1-5.7-1.3-7.4c-2.4-1.7-5.7-1.1-7.4,1.3l-8.6,12.3l-12.3-8.6
	c-2.4-1.7-5.7-1.1-7.4,1.3c-1.7,2.4-1.1,5.7,1.3,7.4l12.3,8.6l0,0L531.2,291.6z"/>
</svg>
